<?xml version="1.0" encoding="utf-8"?>

<!-- © Muiris Woulfe. Licensed under the MIT License. -->

<svg version="1.1" xmlns="http://www.w3.org/2000/svg" viewBox="0 0 500 500">

  <style type="text/css">
    .nuget {
      fill:#004880;
    }
    .lightArrow {
      fill:#FFCC8D;
    }
    .darkArrow {
      fill:#F5A134;
    }
  </style>

  <g class="nuget" transform="translate(0.000000, 6.000000)">
    <path d="M368.1,450.6c-45.9,0-83.3-38.4-83.3-85.7c0-35.1,20.5-65.3,50-78.6c10.1-4.5,21.4-7.1,33.2-7.1c45.9,0,83.3,
      38.4,83.3,85.7C451.3,412.2,414.1,450.6,368.1,450.6 M202.1,254.2c-28.7,0-52-24-52-53.5s23.3-53.5,52-53.5s52,24,52,
      53.5S230.8,254.2,202.1,254.2 M371.8,87.2H232.9c-70.8,0-128.2,59.1-128.2,131.9v143c0,72.8,57.4,131.9,128.2,131.9
      h138.9c70.8,0,128.2-59.1,128.2-131.9v-143C500,146.2,442.6,87.2,371.8,87.2"/>
    <path d="M83.3,36.8c0,23.7-18.7,42.8-41.6,42.8C18.6,79.7,0,60.5,0,36.8C0,13.3,18.6-6,41.6-6S83.3,13.3,83.3,36.8"/>
  </g>

  <line x1="310.2" y1="309.4" x2="242.7" y2="240.1"/>
  <line x1="169.7" y1="164.9" x2="75.4" y2="67.8"/>

  <polygon class="lightArrow" points="263.8,259.3 268,255 242.7,240.1 257.3,266 261.5,261.7 309,310.6 311.2,308.3"/>
  <polygon class="lightArrow" points="96.3,87.2 100.6,82.8 75.4,67.8 90,93.9 94.2,89.5 168.5,166 170.8,163.6 "/>
  <path class="darkArrow" d="M139.5,39.7V27.4l-12.4,3.4l-43.8,12l43.8,12.1l12.4,3.4V46h201.7h15.4h6.5h1.7h0.2c0,0.1,0,
    0.1,0,0.2v0.4v0.8v3.3v31.8v67.6v135h6.2V150.2V82.7V47v-5.1v-1.3V40c0-0.1,0-0.2,0-0.3h-0.3h-2.5h-9.9h-17.3C341.2,
    39.7,139.5,39.7,139.5,39.7z"/>
</svg>
