<?xml version="1.0" encoding="utf-8"?>

<!-- © Muiris Woulfe. Licensed under the MIT License. -->

<!DOCTYPE svg PUBLIC "-//W3C//DTD SVG 1.1//EN" "http://www.w3.org/Graphics/SVG/1.1/DTD/svg11.dtd">
<svg xmlns="http://www.w3.org/2000/svg" viewBox="0 0 128 128">
  <path fill="#004880" d="M94 117c-12 0-21-10-21-22 0-9 5-17 13-20l8-2c12 0 21 10 21 22s-9 22-21 22M52 67c-8
    0-14-7-14-14s6-14 14-14 13 6 13 14-6 14-13 14m43-43H60c-19 0-33 15-33 34v36c0 19 14 34 33 34h35c18 0 33-15
    33-34V58c0-19-15-34-33-34M21 11c0 6-4 11-10 11S0 17 0 11 5 0 11 0s10 5 10 11"/>
  <path d="M79 79L62 61M44 42L19 17"/>
  <path fill="#ffcc8d" d="M68 66l1-1-7-4 4 7 1-1 12 13 1-1-12-13zM25 22l1-1-7-4 4 7 1-1 19 20 1-1-19-20z"/>
  <path fill="#f5a134" d="M36 10V7l-4 1-11 3 12 3 3 1v-3h58v61h1V10H36z"/>
</svg>
