<?xml version="1.0" encoding="utf-8"?>

<!-- © Muiris Woulfe. Licensed under the MIT License. -->

<!DOCTYPE svg PUBLIC "-//W3C//DTD SVG 1.1//EN" "http://www.w3.org/Graphics/SVG/1.1/DTD/svg11.dtd">
<svg xmlns="http://www.w3.org/2000/svg" viewBox="0 0 500 500">
  <path fill="#004880" d="M368 457c-46 0-83-39-83-86 0-35 20-65 50-79 10-4 21-7 33-7 46 0 83 39 83 86s-37 86-83 86M202
    260c-29 0-52-24-52-53s23-54 52-54 52 24 52 54-23 53-52 53M372 93H233c-71 0-128 59-128 132v143c0 73 57 132 128
    132h139c71 0 128-59 128-132V225c0-73-57-132-128-132M83 43c0 23-18 43-41 43S0 67 0 43 19 0 42 0s41 19 41 43"/>
  <path d="M310 309l-67-69M170 165L75 68"/>
  <path fill="#ffcc8d" d="M264 259l4-4-25-15 14 26 5-4 47 49 2-3zM96 87l5-4-26-15 15 26 4-4 75 76 2-2z"/>
  <path fill="#f5a134" d="M140 40V27l-13 4-44 12 44 12 12 3V46h226v239h6V40h-30-201z"/>
</svg>
